<svg width="12.000000" height="12.000000" viewBox="0 0 12 12" fill="none" xmlns="http://www.w3.org/2000/svg" xmlns:xlink="http://www.w3.org/1999/xlink">
	<desc>
			Created with Pixso.
	</desc>
	<defs/>
	<path id="Vector" d="M1 12C1 12 0 12 0 11C0 10 1 7 6 7C11 7 12 10 12 11C12 12 11 12 11 12L1 12ZM6 6C6.79 6 7.55 5.68 8.12 5.12C8.68 4.55 9 3.79 9 3C9 2.2 8.68 1.44 8.12 0.87C7.55 0.31 6.79 0 6 0C5.2 0 4.44 0.31 3.87 0.87C3.31 1.44 3 2.2 3 3C3 3.79 3.31 4.55 3.87 5.12C4.44 5.68 5.2 6 6 6Z" fill="#00C65E" fill-opacity="1.000000" fill-rule="evenodd"/>
</svg>
