<svg width="71.992188" height="30.342773" viewBox="0 0 71.9922 30.3428" fill="none" xmlns="http://www.w3.org/2000/svg" xmlns:xlink="http://www.w3.org/1999/xlink">
	<desc>
			Created with Pixso.
	</desc>
	<defs/>
	<path id="Vector" d="M0 8.83L7.1 8.83L7.1 25.03L10.15 25.03C17 25.03 20.42 21.7 20.42 15.04C20.42 8.53 17.24 5.27 10.88 5.27L9.6 5.27L9.6 0L10.52 0C15.99 0 20.23 1.31 23.26 3.93C26.29 6.55 27.8 10.21 27.8 14.89C27.8 19.88 26.23 23.69 23.1 26.34C19.96 28.99 15.42 30.32 9.48 30.34L0 30.34L0 8.83Z" fill="#00C65E" fill-opacity="1.000000" fill-rule="nonzero"/>
	<path id="Vector" d="M0 0L7.1 0L7.1 6.33L0 6.33L0 0Z" fill="#00C65E" fill-opacity="1.000000" fill-rule="evenodd"/>
	<path id="left / H3" d="M34.38 9.3C34.64 9.55 34.77 9.88 34.77 10.29C34.77 10.69 34.64 11.02 34.38 11.26Q34.32 11.32 34.25 11.37Q33.88 11.63 33.33 11.63C32.91 11.63 32.59 11.51 32.34 11.26C32.1 11.02 31.98 10.69 31.98 10.29C31.98 9.88 32.11 9.55 32.35 9.3Q32.44 9.21 32.55 9.14Q32.87 8.93 33.33 8.93Q33.88 8.93 34.25 9.2Q34.32 9.24 34.38 9.3ZM37.12 9.02L39.55 9.02L39.55 21.62L37.12 21.62L37.12 9.02ZM59.69 12.71L60.05 12.71L60.05 15.16C59.87 15.09 59.6 15.06 59.24 15.05C58.6 15.05 58.09 15.25 57.73 15.66C57.36 16.06 57.16 16.64 57.16 17.4L57.16 21.62L54.74 21.62L54.74 12.8L57.16 12.8L57.16 13.88C57.23 13.8 57.34 13.7 57.46 13.57C57.59 13.43 57.87 13.26 58.31 13.04C58.75 12.83 59.21 12.71 59.69 12.71ZM32.16 12.8L34.59 12.8L34.59 21.62L32.16 21.62L32.16 12.8ZM42.52 23.15C43.25 23.15 43.76 22.83 44.05 22.16L44.32 21.54L40.9 12.8L43.43 12.8L45.49 18.65L47.57 12.8L50.08 12.8L46.57 22.16C45.76 24.32 44.63 25.4 43.15 25.4C42.89 25.4 42.63 25.39 42.37 25.33C42.11 25.29 41.92 25.25 41.8 25.19L41.62 25.13L41.62 22.98C41.86 23.1 42.16 23.15 42.52 23.15ZM69.78 21.62L67.35 21.62L67.35 20.73C67.28 20.82 67.17 20.91 67.05 21.04C66.92 21.16 66.64 21.32 66.2 21.51Q65.82 21.68 65.43 21.75Q65.13 21.8 64.83 21.8C63.82 21.8 62.99 21.47 62.36 20.79C61.72 20.11 61.41 19.21 61.41 18.08L61.41 12.8L63.83 12.8L63.83 17.85C63.83 18.34 63.99 18.75 64.32 19.07C64.64 19.39 65.06 19.55 65.55 19.55C66.09 19.55 66.53 19.37 66.86 19.01C67.18 18.66 67.35 18.15 67.35 17.48L67.35 12.8L69.78 12.8L69.78 21.62ZM50.4 21.4C50.11 21.13 49.97 20.82 49.97 20.46Q49.97 20.26 50.03 20.08Q50.13 19.77 50.4 19.51C50.68 19.24 51.01 19.1 51.41 19.1C51.81 19.1 52.15 19.24 52.43 19.51Q52.7 19.77 52.8 20.08Q52.86 20.26 52.86 20.46C52.86 20.82 52.72 21.13 52.43 21.4C52.15 21.67 51.81 21.8 51.41 21.8C51.01 21.8 50.68 21.67 50.4 21.4Z" fill="#00C65E" fill-opacity="1.000000" fill-rule="evenodd"/>
</svg>
